<svg width="36" height="36" viewBox="0 0 36 36" xmlns="http://www.w3.org/2000/svg">
<path fill-rule="evenodd"
      clip-rule="evenodd"
      d="M34 18C34 26.8366 26.8366 34 18 34C9.16344 34 2 26.8366 2 18C2 9.16344 9.16344 2 18 2C26.8366 2 34 9.16344 34 18ZM36 18C36 27.9411 27.9411 36 18 36C8.05887 36 0 27.9411 0 18C0 8.05887 8.05887 0 18 0C27.9411 0 36 8.05887 36 18ZM13 17.8009L13.0029 17.798L13.0001 17.7952L14.4143 16.381L14.4171 16.3838L19.8009 11L21.2151 12.4142L15.8313 17.798L21.2152 23.1819L19.801 24.5961L14.4171 19.2122L14.4142 19.2151L13 17.8009Z"
      />
</svg>
