<svg width="36" height="36" viewBox="0 0 36 36" xmlns="http://www.w3.org/2000/svg">
<path fill-rule="evenodd" clip-rule="evenodd" d="M2 18C2 9.16344 9.16345 2 18 2C26.8366 2 34 9.16344 34 18C34 26.8366 26.8366 34 18 34C9.16344 34 2 26.8366 2 18ZM1.57361e-06 18C2.44269e-06 8.05887 8.05888 -2.44269e-06 18 -1.57361e-06C27.9411 -7.04529e-07 36 8.05887 36 18C36 27.9411 27.9411 36 18 36C8.05887 36 7.04529e-07 27.9411 1.57361e-06 18ZM23 18.1991L22.9971 18.202L22.9999 18.2048L21.5857 19.619L21.5829 19.6162L16.1991 25L14.7849 23.5858L20.1687 18.202L14.7848 12.8181L16.199 11.4039L21.5829 16.7878L21.5858 16.7849L23 18.1991Z"/>
</svg>
